<svg width="27px" height="16px" viewBox="0 0 27 16" version="1.1" xmlns="http://www.w3.org/2000/svg" xmlns:xlink="http://www.w3.org/1999/xlink">
    <defs>
        <path d="M0.5,10 L0.5,2.66666667 C0.5,1.19390733 1.54466892,0 2.83333333,0 L14.5,0 L14.5,10 L0.5,10 Z M0.5,12 L14.5,12 L14.5,22 L2.83333333,22 C1.54466892,22 0.5,20.8060927 0.5,19.3333333 L0.5,12 Z M30.5,10 L16.5,10 L16.5,0 L28.1666667,0 C29.4553311,0 30.5,1.19390733 30.5,2.66666667 L30.5,10 Z M30.5,12 L30.5,19.3333333 C30.5,20.8060927 29.4553311,22 28.1666667,22 L16.5,22 L16.5,12 L30.5,12 Z" id="path-1"></path>
    </defs>
    <g id="Page-1" stroke="none" stroke-width="1" fill="none" fill-rule="evenodd">
        <g id="Artboard" transform="translate(-31.000000, -2.000000)">
            <g id="Rectangle" transform="translate(29.000000, -1.000000)">
                <mask id="mask-2" fill="white">
                    <use xlink:href="#path-1"></use>
                </mask>
                <g id="Mask"></g>
                <rect stroke="#8E5B00" stroke-width="1.5" mask="url(#mask-2)" x="3.25" y="3.75" width="24.5" height="14.5" rx="3"></rect>
            </g>
            <text id="1-copy" font-family="RobotoCondensed-Bold, Roboto Condensed" font-size="11" font-weight="bold" fill="#333743">
                <tspan x="42.2177734" y="14">2</tspan>
            </text>
        </g>
    </g>
</svg>